<?xml version="1.0" encoding="utf-8"?>
<!-- Generator: Adobe Illustrator 19.0.0, SVG Export Plug-In . SVG Version: 6.00 Build 0)  -->
<svg version="1.1" id="Layer_1" xmlns="http://www.w3.org/2000/svg" xmlns:xlink="http://www.w3.org/1999/xlink" x="0px" y="0px"
	 viewBox="-854 516 210 50" style="enable-background:new -854 516 210 50;" xml:space="preserve">
<style type="text/css">
	.st0{fill:#D31245;}
	.st1{fill:#FFFFFF;}
</style>
<rect x="-854" y="516" class="st0" width="50.1" height="50.1"/>
<path class="st1" d="M-814.1,526.5c-0.9,0-1.7,0.8-1.7,1.7c0,1,0.8,1.7,1.7,1.7c0.9,0,1.7-0.8,1.7-1.7
	C-812.4,527.3-813.1,526.5-814.1,526.5L-814.1,526.5z M-814.1,526.8c0.8,0,1.4,0.6,1.4,1.4s-0.6,1.4-1.4,1.4c-0.8,0-1.4-0.6-1.4-1.4
	C-815.5,527.4-814.8,526.8-814.1,526.8L-814.1,526.8z M-814.4,528.4h0.2c0.2,0,0.4,0.1,0.4,0.3c0,0.3,0.1,0.4,0.1,0.5h0.3
	c0-0.1-0.1-0.2-0.1-0.5c0-0.3-0.2-0.4-0.3-0.5v0c0.2-0.1,0.4-0.2,0.4-0.5c0-0.2-0.1-0.3-0.2-0.4c-0.1-0.1-0.3-0.1-0.6-0.1
	c-0.2,0-0.4,0-0.5,0v1.9h0.3V528.4z M-814.4,527.5c0.1,0,0.1,0,0.2,0c0.3,0,0.5,0.2,0.5,0.3c0,0.2-0.2,0.3-0.5,0.3h-0.2V527.5z"/>
<g>
	<path class="st1" d="M-818.7,525.5c-8.4,7.3-2.1,9.5-7.2,14.2C-815.8,536.7-824.2,532.7-818.7,525.5z"/>
	<path class="st1" d="M-827.2,523.1c-4.2,10.3,2.4,9.4,0.1,15.9C-819.5,531.8-828.8,532.1-827.2,523.1z"/>
	<path class="st1" d="M-837,523.6c1.1,12.3,7.1,8.1,8,15.8C-825.1,528.3-834.1,533.3-837,523.6z"/>
	<path class="st1" d="M-843.5,530.8c5.9,9.4,9,3.5,12.9,9.3C-832,529.6-837.2,537.3-843.5,530.8z"/>
	<path class="st1" d="M-847.2,539.3c9.5,5.7,9.6-0.9,15.7,2.4C-837.5,533.1-838.7,542.3-847.2,539.3z"/>
	<path class="st1" d="M-842,545.8c7.3,1.1,5.7-3.2,10.3-2.7C-837.6,539.3-835.9,545.5-842,545.8z"/>
	<path class="st1" d="M-839.9,550.9c7.2-1.8,4-5.2,8.4-6.4C-838.4,543.2-834.5,548.3-839.9,550.9z"/>
	<path class="st1" d="M-835.6,555c5.8-4.5,1.6-6.3,5.2-9.3C-837.3,547.3-831.7,550.4-835.6,555z"/>
	<path class="st1" d="M-830.3,556.9c3.7-6.4-0.9-6.4,1.2-10.5C-834.8,550.5-828.5,551.2-830.3,556.9z"/>
	<path class="st1" d="M-824.7,556.9c0.9-7.3-3.4-5.6-3-10.2C-831.3,552.7-825.2,550.9-824.7,556.9z"/>
	<path class="st1" d="M-819.4,554.5c-2.1-7.1-5.3-3.8-6.8-8.2C-827.2,553.3-822.3,549.2-819.4,554.5z"/>
	<path class="st1" d="M-815.6,550.4c-4.6-5.8-6.4-1.5-9.4-5C-823.2,552.2-820.2,546.6-815.6,550.4z"/>
	<path class="st1" d="M-813.8,545c-6.5-3.5-6.4,1.1-10.6-0.9C-820.1,549.6-819.6,543.3-813.8,545z"/>
	<path class="st1" d="M-814.1,539.6c-7.3-0.7-5.5,3.6-10.1,3.3C-818,546.4-820,540.3-814.1,539.6z"/>
	<path class="st1" d="M-814.5,532.8c-8.7,2.6-4.7,6.4-10.1,8.3C-816,542.2-821,536.4-814.5,532.8z"/>
</g>
<g>
	<path class="st0" d="M-767.4,542.9l-0.4-2.1c0-0.2-0.2-0.2-0.4-0.2c-0.7,0.2-1.6,0.4-2.5,0.4c-3.1,0-4.9-1.9-4.9-5
		c0-3.4,2.1-5.1,4.9-5.1c1.1,0,2,0.2,2.6,0.5c0.3,0.1,0.3,0,0.3-0.2l0.6-2.2c0-0.2,0-0.2-0.2-0.3c-0.7-0.3-2-0.6-3.6-0.6
		c-4.7,0-8.4,2.9-8.4,8.1c0,4.4,2.7,7.7,8,7.7c1.6,0,2.8-0.3,3.6-0.5C-767.4,543.3-767.4,543.1-767.4,542.9z"/>
	<path class="st0" d="M-756.4,531.2l0.6-2c0.1-0.3,0-0.5-0.3-0.6c-0.9-0.4-2-0.6-3.5-0.6c-3.6,0-5.8,2-5.8,4.6
		c0,2.3,1.7,3.7,4.2,4.6c1.8,0.6,2.6,1.2,2.6,2.1c0,1-0.8,1.7-2.4,1.7c-1.3,0-2.6-0.4-3.6-0.8c-0.2-0.1-0.3,0-0.4,0.2l-0.5,2.1
		c-0.1,0.3-0.1,0.4,0.2,0.6c0.9,0.4,2.5,0.8,4,0.8c4.2,0,6.2-2.2,6.2-4.8c0-2.2-1.3-3.6-4-4.6c-2-0.8-2.8-1.2-2.8-2.2
		c0-0.8,0.7-1.5,2.2-1.5c1.2,0,2.1,0.3,2.7,0.5C-756.6,531.5-756.5,531.5-756.4,531.2z"/>
	<path class="st0" d="M-748.3,543.1c0,0.3,0.2,0.5,0.5,0.5h1c0.3,0,0.5-0.2,0.5-0.5v-12.7c0-0.3,0.2-0.5,0.5-0.5h3.7
		c0.3,0,0.5-0.2,0.5-0.5v-0.7c0-0.3-0.2-0.5-0.5-0.5h-10.4c-0.3,0-0.5,0.2-0.5,0.5v0.7c0,0.3,0.2,0.5,0.5,0.5h3.7
		c0.3,0,0.5,0.2,0.5,0.5V543.1z M-739.4,528.3c-0.3,0-0.5,0.2-0.5,0.5v14.4c0,0.3,0.2,0.5,0.5,0.5h1c0.3,0,0.5-0.2,0.5-0.5V537
		c0-0.3,0.2-0.5,0.5-0.5h6.4c0.3,0,0.5,0.2,0.5,0.5v6.2c0,0.3,0.2,0.5,0.5,0.5h1c0.3,0,0.5-0.2,0.5-0.5v-14.4c0-0.3-0.2-0.5-0.5-0.5
		h-1c-0.3,0-0.5,0.2-0.5,0.5v5.4c0,0.3-0.2,0.5-0.5,0.5h-6.4c-0.3,0-0.5-0.2-0.5-0.5v-5.4c0-0.3-0.2-0.5-0.5-0.5H-739.4z
		 M-717.1,535.3c0-0.3-0.2-0.5-0.5-0.5h-4.9c-0.3,0-0.5-0.2-0.5-0.5v-3.9c0-0.3,0.2-0.5,0.5-0.5h5.3c0.3,0,0.5-0.2,0.5-0.5v-0.7
		c0-0.3-0.2-0.5-0.5-0.5h-7.3c-0.3,0-0.5,0.2-0.5,0.5v14.4c0,0.3,0.2,0.5,0.5,0.5h7.7c0.3,0,0.5-0.2,0.5-0.5v-0.7
		c0-0.3-0.2-0.5-0.5-0.5h-5.7c-0.3,0-0.5-0.2-0.5-0.5V537c0-0.3,0.2-0.5,0.5-0.5h4.9c0.3,0,0.5-0.2,0.5-0.5V535.3z M-713.8,543.1
		c0,0.3,0.2,0.5,0.5,0.5h1c0.3,0,0.5-0.2,0.5-0.5v-5.6c0-0.3,0.2-0.5,0.5-0.5h1.4c1.8,0.1,2.6,0.9,3.1,3c0.4,1.9,0.8,3.2,1,3.7h2.1
		c-0.3-0.6-0.7-2.1-1.2-4.2c-0.4-1.6-1.1-2.7-2.3-3.1v-0.1c1.6-0.5,2.9-1.9,2.9-3.9c0-1.2-0.5-2.3-1.2-2.9c-1-0.9-2.3-1.3-4.5-1.3
		c-1.3,0-2.8,0.1-3.8,0.3V543.1z M-711.8,529.9c0.3-0.1,1-0.2,2-0.2c2.1,0,3.5,0.9,3.5,2.8c0,1.8-1.3,2.9-3.5,2.9h-1.5
		c-0.3,0-0.5-0.2-0.5-0.5V529.9z M-688.2,543.1c0,0.3,0.3,0.5,0.5,0.5h1c0.3,0,0.5-0.2,0.5-0.5l-0.9-14.4c0-0.3-0.3-0.5-0.5-0.5
		h-1.5c-0.3,0-0.6,0.2-0.7,0.5l-2.6,7c-0.7,1.9-1.2,3.6-1.6,5.2h0c-0.4-1.6-0.9-3.3-1.5-5.2l-2.5-7c-0.1-0.3-0.4-0.5-0.7-0.5h-1.5
		c-0.3,0-0.5,0.2-0.5,0.5l-1,14.4c0,0.3,0.2,0.5,0.5,0.5h0.9c0.3,0,0.5-0.2,0.5-0.5l0.4-6.1c0.1-2.3,0.3-4.9,0.3-6.8h0
		c0.4,1.8,1,3.8,1.8,6l2.3,6.8c0.1,0.3,0.4,0.5,0.7,0.5h0.5c0.3,0,0.6-0.2,0.7-0.5l2.5-7c0.8-2.1,1.4-4.1,1.9-5.8h0
		c0,1.9,0.1,4.5,0.3,6.6L-688.2,543.1z M-677.2,543.9c3.9,0,7.1-2.8,7.1-8.1c0-4.6-2.7-7.8-6.9-7.8c-4.1,0-7.1,3.2-7.1,8.1
		C-684.1,540.8-681.3,543.9-677.2,543.9L-677.2,543.9z M-677.1,542.3c-3.1,0-4.9-3-4.9-6.2c0-3.3,1.6-6.4,4.9-6.4
		c3.3,0,4.9,3.2,4.9,6.2C-672.2,539.4-674,542.3-677.1,542.3L-677.1,542.3z M-668.3,542.9c0.8,0.5,2.4,1,3.9,1
		c3.6,0,5.4-2.1,5.4-4.4c0-2.3-1.3-3.5-3.9-4.5c-2.1-0.8-3.1-1.5-3.1-3c0-1,0.8-2.3,2.9-2.3c1.4,0,2.4,0.4,2.9,0.7l0.6-1.6
		c-0.7-0.4-1.8-0.7-3.4-0.7c-3,0-5,1.8-5,4.2c0,2.1,1.6,3.5,4.1,4.4c2.1,0.8,2.9,1.6,2.9,3c0,1.6-1.2,2.6-3.2,2.6
		c-1.4,0-2.6-0.4-3.5-1L-668.3,542.9z"/>
</g>
<g>
	<g>
		<g>
			<path class="st0" d="M-779,553.2c0.4,0.3,1,0.5,1.6,0.5c0.9,0,1.5-0.5,1.5-1.2c0-0.7-0.4-1-1.3-1.4c-1.2-0.4-1.9-1-1.9-2
				c0-1.1,0.9-1.9,2.3-1.9c0.7,0,1.3,0.2,1.6,0.4l-0.3,0.7c-0.2-0.1-0.7-0.3-1.3-0.3c-1,0-1.3,0.6-1.3,1.1c0,0.7,0.4,1,1.4,1.4
				c1.2,0.5,1.8,1,1.8,2.1c0,1.1-0.8,2.1-2.5,2.1c-0.7,0-1.4-0.2-1.8-0.5L-779,553.2z"/>
			<path class="st0" d="M-770.1,548h-2.2v-0.8h5.3v0.8h-2.2v6.3h-0.9V548z"/>
			<path class="st0" d="M-763,547.2v4.2c0,1.6,0.7,2.3,1.7,2.3c1,0,1.7-0.7,1.7-2.3v-4.2h0.9v4.2c0,2.2-1.2,3.1-2.7,3.1
				c-1.5,0-2.6-0.8-2.6-3v-4.2H-763z"/>
			<path class="st0" d="M-754.8,547.2h3.8v0.8h-2.9v2.4h2.7v0.8h-2.7v3.2h-0.9V547.2z"/>
			<path class="st0" d="M-743.6,551h-2.8v2.6h3.1v0.8h-4v-7.1h3.9v0.8h-2.9v2.3h2.8V551z"/>
			<path class="st0" d="M-734.1,552.1l-0.7,2.2h-0.9l2.4-7.1h1.1l2.4,7.1h-1l-0.8-2.2H-734.1z M-731.8,551.4l-0.7-2
				c-0.2-0.5-0.3-0.9-0.4-1.3h0c-0.1,0.4-0.2,0.9-0.4,1.3l-0.7,2.1H-731.8z"/>
			<path class="st0" d="M-722,547.3c0.4-0.1,1-0.2,1.7-0.2c0.9,0,1.5,0.2,1.9,0.5c0.4,0.3,0.6,0.7,0.6,1.3c0,0.7-0.5,1.3-1.2,1.6v0
				c0.7,0.2,1.5,0.7,1.5,1.8c0,0.6-0.2,1.1-0.6,1.4c-0.5,0.5-1.3,0.7-2.4,0.7c-0.6,0-1.1,0-1.4-0.1V547.3z M-721.1,550.2h0.8
				c1,0,1.5-0.5,1.5-1.2c0-0.8-0.6-1.2-1.6-1.2c-0.4,0-0.7,0-0.8,0.1V550.2z M-721.1,553.6c0.2,0,0.4,0,0.8,0c1,0,1.8-0.3,1.8-1.4
				c0-1-0.8-1.4-1.8-1.4h-0.8V553.6z"/>
			<path class="st0" d="M-713.1,547.2v7.1h-0.9v-7.1H-713.1z"/>
			<path class="st0" d="M-703.1,550.7c0,2.4-1.5,3.8-3.3,3.8c-1.9,0-3.2-1.5-3.2-3.6c0-2.3,1.4-3.7,3.3-3.7
				C-704.3,547.1-703.1,548.6-703.1,550.7z M-708.6,550.8c0,1.5,0.8,2.9,2.3,2.9c1.5,0,2.3-1.3,2.3-3c0-1.4-0.7-2.9-2.3-2.9
				C-707.9,547.8-708.6,549.2-708.6,550.8z"/>
			<path class="st0" d="M-693.6,551.2c0-1-0.1-2.2-0.1-3.1h0c-0.3,0.8-0.5,1.7-0.9,2.7l-1.3,3.5h-0.7l-1.2-3.4
				c-0.3-1-0.6-1.9-0.8-2.8h0c0,0.9-0.1,2.1-0.1,3.1l-0.2,3.1h-0.9l0.5-7.1h1.2l1.2,3.4c0.3,0.9,0.5,1.7,0.7,2.4h0
				c0.2-0.7,0.4-1.5,0.8-2.4l1.3-3.4h1.2l0.4,7.1h-0.9L-693.6,551.2z"/>
			<path class="st0" d="M-687.8,552.1l-0.7,2.2h-0.9l2.4-7.1h1.1l2.4,7.1h-1l-0.8-2.2H-687.8z M-685.4,551.4l-0.7-2
				c-0.2-0.5-0.3-0.9-0.4-1.3h0c-0.1,0.4-0.2,0.9-0.4,1.3l-0.7,2.1H-685.4z"/>
			<path class="st0" d="M-680.3,553.2c0.4,0.3,1,0.5,1.6,0.5c0.9,0,1.5-0.5,1.5-1.2c0-0.7-0.4-1-1.3-1.4c-1.2-0.4-1.9-1-1.9-2
				c0-1.1,0.9-1.9,2.3-1.9c0.7,0,1.3,0.2,1.6,0.4l-0.3,0.7c-0.2-0.1-0.7-0.3-1.3-0.3c-1,0-1.3,0.6-1.3,1.1c0,0.7,0.4,1,1.4,1.4
				c1.2,0.5,1.8,1,1.8,2.1c0,1.1-0.8,2.1-2.5,2.1c-0.7,0-1.4-0.2-1.8-0.5L-680.3,553.2z"/>
			<path class="st0" d="M-672.8,553.2c0.4,0.3,1,0.5,1.6,0.5c0.9,0,1.5-0.5,1.5-1.2c0-0.7-0.4-1-1.3-1.4c-1.2-0.4-1.9-1-1.9-2
				c0-1.1,0.9-1.9,2.3-1.9c0.7,0,1.3,0.2,1.6,0.4l-0.3,0.7c-0.2-0.1-0.7-0.3-1.3-0.3c-1,0-1.3,0.6-1.3,1.1c0,0.7,0.4,1,1.4,1.4
				c1.2,0.5,1.8,1,1.8,2.1c0,1.1-0.8,2.1-2.5,2.1c-0.7,0-1.4-0.2-1.8-0.5L-672.8,553.2z"/>
			<path class="st0" d="M-664,552.1l-0.7,2.2h-0.9l2.4-7.1h1.1l2.4,7.1h-1l-0.8-2.2H-664z M-661.7,551.4l-0.7-2
				c-0.2-0.5-0.3-0.9-0.4-1.3h0c-0.1,0.4-0.2,0.9-0.4,1.3l-0.7,2.1H-661.7z"/>
		</g>
	</g>
</g>
</svg>
