<svg viewBox="0 0 156 41" xmlns="http://www.w3.org/2000/svg" xmlns:xlink="http://www.w3.org/1999/xlink"><clipPath id="a"><path d="m.19.5h155.62v40h-155.62z"/></clipPath><g clip-path="url(#a)"><path d="m89.58 20.5a6.27 6.27 0 1 1 -6.27-6.26 6.27 6.27 0 0 1 6.27 6.26" fill="#ff6d2d"/><path d="m30.5 29.46a13.46 13.46 0 0 1 -5.71 8.36 15.79 15.79 0 0 1 -9.23 2.68 15.14 15.14 0 0 1 -10.87-4.3 13.94 13.94 0 0 1 -4.5-10.49v-10.42a13.86 13.86 0 0 1 4.51-10.43 14.87 14.87 0 0 1 10.86-4.36 15.89 15.89 0 0 1 9.23 2.74 13.22 13.22 0 0 1 5.71 8.3h-6q-1.56-6-8.93-6a9.23 9.23 0 0 0 -6.63 2.58 8.89 8.89 0 0 0 -2.62 6.56v11.67a9 9 0 0 0 9.24 9.24q7.3 0 8.93-6.13z" fill="#1d1d1b"/></g><g fill="#1d1d1b"><path d="m47.45 8.18 6.61 17.59h-13.29zm-3.17-7.13-15.28 38.95h6.4l3.6-9.47h16.89l3.48 9.47h6.37l-15.09-38.95z"/><path d="m102.26 1.05v38.9h25.21v-5h-19.08v-12.74h19.08v-5h-19.08v-11.1h19.08v-5.06z"/><path d="m130.87 1.05v38.9h24.94v-5h-18.81v-33.9z"/></g><g clip-path="url(#a)"><path d="m94.25 5.1a16.37 16.37 0 0 0 -11.14-4h-3.11v5.01h3a10 10 0 0 1 6.88 2.56 8.16 8.16 0 0 1 2.85 6.33v11a8.27 8.27 0 0 1 -2.8 6.37 10 10 0 0 1 -6.88 2.63h-9.16v-33.95h-6.13v38.95h15.35a16.37 16.37 0 0 0 11.14-4.1 13.2 13.2 0 0 0 4.61-10.25v-10.3a13.44 13.44 0 0 0 -4.61-10.25" fill="#1d1d1b"/></g></svg>