<svg width="114" height="34" viewBox="0 0 114 34" fill="none" xmlns="http://www.w3.org/2000/svg">
<g clip-path="url(#clip0)">
<g style="mix-blend-mode:multiply">
<path fill-rule="evenodd" clip-rule="evenodd" d="M80.7318 20.317C79.4431 23.1781 76.5633 25.1701 73.2195 25.1701C68.672 25.1701 64.9845 21.4865 64.9845 16.9421C64.9845 12.3984 68.672 8.71479 73.2195 8.71479C76.4658 8.71479 79.2731 10.5916 80.6158 13.3176L88.5818 13.3161C88.485 12.1326 88.2234 10.3775 87.9168 9.335H101.857L87.8599 24.4008C87.8599 24.4008 88.2323 22.9839 88.3365 22.3474C88.4392 21.711 88.5678 20.317 88.5678 20.317H80.7318ZM99.9944 24.4L114 9.33795V1.01172H86.2209L86.2172 6.27828C83.4771 2.33925 78.713 0.21875 72.7761 0.21875C65.3326 0.21875 59.1363 5.04452 57.068 11.7065V1.01172H48.0408L32.3215 20.5599V1.01172H24.0695L0 32.8001H11.9505L23.4141 17.868V32.8001H34.5237L46.5991 17.8488V32.8001H57.0783V21.3455C59.1755 27.9618 65.2986 32.8075 72.7096 32.8075C72.8567 32.8075 73.0968 32.8104 73.2424 32.8075L114 32.8008V24.4H99.9944Z" fill="#ED1D24"/>
</g>
</g>
<defs>
<clipPath id="clip0">
<rect width="114" height="33" fill="white" transform="translate(0 0.21875)"/>
</clipPath>
</defs>
</svg>
